G04 #@! TF.GenerationSoftware,KiCad,Pcbnew,5.1.4-e60b266~84~ubuntu18.04.1*
G04 #@! TF.CreationDate,2019-10-16T17:25:34-03:00*
G04 #@! TF.ProjectId,preamp,70726561-6d70-42e6-9b69-6361645f7063,rev?*
G04 #@! TF.SameCoordinates,Original*
G04 #@! TF.FileFunction,Legend,Top*
G04 #@! TF.FilePolarity,Positive*
%FSLAX45Y45*%
G04 Gerber Fmt 4.5, Leading zero omitted, Abs format (unit mm)*
G04 Created by KiCad (PCBNEW 5.1.4-e60b266~84~ubuntu18.04.1) date 2019-10-16 17:25:34*
%MOMM*%
%LPD*%
G04 APERTURE LIST*
%ADD10C,0.150000*%
%ADD11C,0.200000*%
%ADD12C,0.120000*%
G04 APERTURE END LIST*
D10*
X9682224Y-12561876D02*
X9682224Y-12428543D01*
X9682224Y-12466638D02*
X9691748Y-12447590D01*
X9701271Y-12438067D01*
X9720319Y-12428543D01*
X9739367Y-12428543D01*
X9882224Y-12552352D02*
X9863176Y-12561876D01*
X9825081Y-12561876D01*
X9806033Y-12552352D01*
X9796510Y-12533305D01*
X9796510Y-12457114D01*
X9806033Y-12438067D01*
X9825081Y-12428543D01*
X9863176Y-12428543D01*
X9882224Y-12438067D01*
X9891748Y-12457114D01*
X9891748Y-12476162D01*
X9796510Y-12495209D01*
X9958414Y-12428543D02*
X10006033Y-12561876D01*
X10053652Y-12428543D01*
X10386986Y-12561876D02*
X10272700Y-12561876D01*
X10329843Y-12561876D02*
X10329843Y-12361876D01*
X10310795Y-12390448D01*
X10291748Y-12409495D01*
X10272700Y-12419019D01*
X10472700Y-12542828D02*
X10482224Y-12552352D01*
X10472700Y-12561876D01*
X10463176Y-12552352D01*
X10472700Y-12542828D01*
X10472700Y-12561876D01*
X10606033Y-12361876D02*
X10625081Y-12361876D01*
X10644129Y-12371400D01*
X10653652Y-12380924D01*
X10663176Y-12399971D01*
X10672700Y-12438067D01*
X10672700Y-12485686D01*
X10663176Y-12523781D01*
X10653652Y-12542828D01*
X10644129Y-12552352D01*
X10625081Y-12561876D01*
X10606033Y-12561876D01*
X10586986Y-12552352D01*
X10577462Y-12542828D01*
X10567938Y-12523781D01*
X10558414Y-12485686D01*
X10558414Y-12438067D01*
X10567938Y-12399971D01*
X10577462Y-12380924D01*
X10586986Y-12371400D01*
X10606033Y-12361876D01*
X6097071Y-12264214D02*
X6097071Y-11964214D01*
X6168500Y-11964214D01*
X6211357Y-11978500D01*
X6239928Y-12007071D01*
X6254214Y-12035643D01*
X6268500Y-12092786D01*
X6268500Y-12135643D01*
X6254214Y-12192786D01*
X6239928Y-12221357D01*
X6211357Y-12249928D01*
X6168500Y-12264214D01*
X6097071Y-12264214D01*
X6382786Y-12178500D02*
X6525643Y-12178500D01*
X6354214Y-12264214D02*
X6454214Y-11964214D01*
X6554214Y-12264214D01*
X6639928Y-12249928D02*
X6682786Y-12264214D01*
X6754214Y-12264214D01*
X6782786Y-12249928D01*
X6797071Y-12235643D01*
X6811357Y-12207071D01*
X6811357Y-12178500D01*
X6797071Y-12149928D01*
X6782786Y-12135643D01*
X6754214Y-12121357D01*
X6697071Y-12107071D01*
X6668500Y-12092786D01*
X6654214Y-12078500D01*
X6639928Y-12049928D01*
X6639928Y-12021357D01*
X6654214Y-11992786D01*
X6668500Y-11978500D01*
X6697071Y-11964214D01*
X6768500Y-11964214D01*
X6811357Y-11978500D01*
X7168500Y-12264214D02*
X7168500Y-11964214D01*
X7282786Y-11964214D01*
X7311357Y-11978500D01*
X7325643Y-11992786D01*
X7339928Y-12021357D01*
X7339928Y-12064214D01*
X7325643Y-12092786D01*
X7311357Y-12107071D01*
X7282786Y-12121357D01*
X7168500Y-12121357D01*
X7468500Y-12264214D02*
X7468500Y-12064214D01*
X7468500Y-12121357D02*
X7482786Y-12092786D01*
X7497071Y-12078500D01*
X7525643Y-12064214D01*
X7554214Y-12064214D01*
X7768500Y-12249928D02*
X7739928Y-12264214D01*
X7682786Y-12264214D01*
X7654214Y-12249928D01*
X7639928Y-12221357D01*
X7639928Y-12107071D01*
X7654214Y-12078500D01*
X7682786Y-12064214D01*
X7739928Y-12064214D01*
X7768500Y-12078500D01*
X7782786Y-12107071D01*
X7782786Y-12135643D01*
X7639928Y-12164214D01*
X7897071Y-12178500D02*
X8039928Y-12178500D01*
X7868500Y-12264214D02*
X7968500Y-11964214D01*
X8068500Y-12264214D01*
X8168500Y-12264214D02*
X8168500Y-12064214D01*
X8168500Y-12092786D02*
X8182786Y-12078500D01*
X8211357Y-12064214D01*
X8254214Y-12064214D01*
X8282786Y-12078500D01*
X8297071Y-12107071D01*
X8297071Y-12264214D01*
X8297071Y-12107071D02*
X8311357Y-12078500D01*
X8339928Y-12064214D01*
X8382786Y-12064214D01*
X8411357Y-12078500D01*
X8425643Y-12107071D01*
X8425643Y-12264214D01*
X8568500Y-12064214D02*
X8568500Y-12364214D01*
X8568500Y-12078500D02*
X8597071Y-12064214D01*
X8654214Y-12064214D01*
X8682786Y-12078500D01*
X8697071Y-12092786D01*
X8711357Y-12121357D01*
X8711357Y-12207071D01*
X8697071Y-12235643D01*
X8682786Y-12249928D01*
X8654214Y-12264214D01*
X8597071Y-12264214D01*
X8568500Y-12249928D01*
X9211357Y-12264214D02*
X9068500Y-12264214D01*
X9068500Y-11964214D01*
X9268500Y-11964214D02*
X9439929Y-11964214D01*
X9354214Y-12264214D02*
X9354214Y-11964214D01*
X9697071Y-12264214D02*
X9525643Y-12264214D01*
X9611357Y-12264214D02*
X9611357Y-11964214D01*
X9582786Y-12007071D01*
X9554214Y-12035643D01*
X9525643Y-12049928D01*
X9797071Y-11964214D02*
X9997071Y-11964214D01*
X9868500Y-12264214D01*
X10125643Y-12264214D02*
X10182786Y-12264214D01*
X10211357Y-12249928D01*
X10225643Y-12235643D01*
X10254214Y-12192786D01*
X10268500Y-12135643D01*
X10268500Y-12021357D01*
X10254214Y-11992786D01*
X10239929Y-11978500D01*
X10211357Y-11964214D01*
X10154214Y-11964214D01*
X10125643Y-11978500D01*
X10111357Y-11992786D01*
X10097071Y-12021357D01*
X10097071Y-12092786D01*
X10111357Y-12121357D01*
X10125643Y-12135643D01*
X10154214Y-12149928D01*
X10211357Y-12149928D01*
X10239929Y-12135643D01*
X10254214Y-12121357D01*
X10268500Y-12092786D01*
X10382786Y-11992786D02*
X10397071Y-11978500D01*
X10425643Y-11964214D01*
X10497071Y-11964214D01*
X10525643Y-11978500D01*
X10539929Y-11992786D01*
X10554214Y-12021357D01*
X10554214Y-12049928D01*
X10539929Y-12092786D01*
X10368500Y-12264214D01*
X10554214Y-12264214D01*
X13559628Y-11861786D02*
X13559628Y-11633214D01*
X13423914Y-9533729D02*
X13652486Y-9533729D01*
X13538200Y-9648014D02*
X13538200Y-9419443D01*
D11*
X5080000Y-5080000D02*
X13970000Y-5080000D01*
X13970000Y-5080000D02*
X13970000Y-12700000D01*
X5080000Y-12700000D02*
X13970000Y-12700000D01*
X5080000Y-5080000D02*
X5080000Y-12700000D01*
D10*
X6532890Y-10813034D02*
X6532890Y-9252966D01*
X6532890Y-9252966D02*
X5092710Y-9252966D01*
X5092710Y-9252966D02*
X5092710Y-10813034D01*
X5092710Y-10813034D02*
X6532890Y-10813034D01*
X6532890Y-7850134D02*
X6532890Y-6290066D01*
X6532890Y-6290066D02*
X5092710Y-6290066D01*
X5092710Y-6290066D02*
X5092710Y-7850134D01*
X5092710Y-7850134D02*
X6532890Y-7850134D01*
D12*
X7738571Y-7295100D02*
X7738571Y-7340100D01*
X7716071Y-7317600D02*
X7761071Y-7317600D01*
X7757826Y-7557100D02*
G75*
G03X7757826Y-7345100I211974J106000D01*
G01*
X9271000Y-7422800D02*
X9531000Y-7422800D01*
X9531000Y-7422800D02*
X9531000Y-7156800D01*
X9531000Y-7156800D02*
X9271000Y-7156800D01*
X9271000Y-7156800D02*
X9271000Y-7422800D01*
X9144000Y-7422800D02*
X9011000Y-7422800D01*
X9011000Y-7422800D02*
X9011000Y-7289800D01*
X9609600Y-6540500D02*
G75*
G03X9609600Y-6540500I-412000J0D01*
G01*
X13156200Y-11518400D02*
X14092200Y-11518400D01*
X14092200Y-11518400D02*
X14092200Y-9772400D01*
X14092200Y-9772400D02*
X13156200Y-9772400D01*
X13156200Y-11518400D02*
X13156200Y-10925400D01*
X13156200Y-9772400D02*
X13156200Y-10365400D01*
X13156200Y-10715400D02*
X13156200Y-10575400D01*
X13764200Y-11038400D02*
X13764200Y-10252400D01*
X13156200Y-11038400D02*
X14092200Y-11038400D01*
X13156200Y-10252400D02*
X14092200Y-10252400D01*
X13024200Y-10790400D02*
X13084200Y-10820400D01*
X13084200Y-10820400D02*
X13024200Y-10850400D01*
X13024200Y-10850400D02*
X13024200Y-10790400D01*
X5816600Y-5588000D02*
G75*
G03X5816600Y-5588000I-228600J0D01*
G01*
X8520800Y-8399100D02*
X8520800Y-8027100D01*
X8692800Y-8399100D02*
X8692800Y-8027100D01*
X13690600Y-5588000D02*
G75*
G03X13690600Y-5588000I-228600J0D01*
G01*
X8231800Y-8313100D02*
G75*
G02X8231800Y-8113100I0J100000D01*
G01*
X8231800Y-8113100D02*
X8231800Y-7948100D01*
X8231800Y-7948100D02*
X7203800Y-7948100D01*
X7203800Y-7948100D02*
X7203800Y-8478100D01*
X7203800Y-8478100D02*
X8231800Y-8478100D01*
X8231800Y-8478100D02*
X8231800Y-8313100D01*
X8647800Y-7383100D02*
X8647800Y-7011100D01*
X8819800Y-7383100D02*
X8819800Y-7011100D01*
X11819874Y-11082291D02*
G75*
G03X11820000Y-11760353I118126J-339009D01*
G01*
X12056126Y-11082291D02*
G75*
G02X12056000Y-11760353I-118126J-339009D01*
G01*
X12056126Y-11082291D02*
G75*
G03X11820000Y-11082247I-118126J-339009D01*
G01*
X11938000Y-11891300D02*
X11938000Y-11771300D01*
X11873000Y-11831300D02*
X12003000Y-11831300D01*
X10968974Y-11082291D02*
G75*
G03X10969100Y-11760353I118126J-339009D01*
G01*
X11205226Y-11082291D02*
G75*
G02X11205100Y-11760353I-118126J-339009D01*
G01*
X11205226Y-11082291D02*
G75*
G03X10969100Y-11082247I-118126J-339009D01*
G01*
X11087100Y-11891300D02*
X11087100Y-11771300D01*
X11022100Y-11831300D02*
X11152100Y-11831300D01*
X11956356Y-7322726D02*
G75*
G03X12936136Y-7322400I489844J138326D01*
G01*
X11956356Y-7046074D02*
G75*
G02X12936136Y-7046400I489844J-138326D01*
G01*
X11956356Y-7046074D02*
G75*
G03X11956264Y-7322400I489844J-138326D01*
G01*
X12446200Y-7689400D02*
X12446200Y-6679400D01*
X12442200Y-7689400D02*
X12442200Y-6679400D01*
X12438200Y-7689400D02*
X12438200Y-6679400D01*
X12434200Y-7689300D02*
X12434200Y-6679500D01*
X12430200Y-7689200D02*
X12430200Y-6679600D01*
X12426200Y-7689100D02*
X12426200Y-6679700D01*
X12422200Y-7688900D02*
X12422200Y-6679900D01*
X12418200Y-7688700D02*
X12418200Y-6680100D01*
X12414200Y-7688400D02*
X12414200Y-6680400D01*
X12410200Y-7688200D02*
X12410200Y-6680600D01*
X12406200Y-7687900D02*
X12406200Y-6680900D01*
X12402200Y-7687500D02*
X12402200Y-6681300D01*
X12398200Y-7687200D02*
X12398200Y-6681600D01*
X12394200Y-7686800D02*
X12394200Y-6682000D01*
X12390200Y-7686400D02*
X12390200Y-6682400D01*
X12386200Y-7685900D02*
X12386200Y-6682900D01*
X12382200Y-7685400D02*
X12382200Y-6683400D01*
X12378200Y-7684900D02*
X12378200Y-6683900D01*
X12374100Y-7684300D02*
X12374100Y-6684500D01*
X12370100Y-7683700D02*
X12370100Y-6685100D01*
X12366100Y-7683100D02*
X12366100Y-6685700D01*
X12362100Y-7682500D02*
X12362100Y-6686300D01*
X12358100Y-7681800D02*
X12358100Y-6687000D01*
X12354100Y-7681100D02*
X12354100Y-6687700D01*
X12350100Y-7680300D02*
X12350100Y-6688500D01*
X12346100Y-7679500D02*
X12346100Y-6689300D01*
X12342100Y-7678700D02*
X12342100Y-6690100D01*
X12338100Y-7677900D02*
X12338100Y-6690900D01*
X12334100Y-7677000D02*
X12334100Y-6691800D01*
X12330100Y-7676100D02*
X12330100Y-6692700D01*
X12326100Y-7675100D02*
X12326100Y-6693700D01*
X12322100Y-7674100D02*
X12322100Y-6694700D01*
X12318100Y-7673100D02*
X12318100Y-6695700D01*
X12314100Y-7672000D02*
X12314100Y-7302500D01*
X12314100Y-7066300D02*
X12314100Y-6696800D01*
X12310100Y-7670900D02*
X12310100Y-7302500D01*
X12310100Y-7066300D02*
X12310100Y-6697900D01*
X12306100Y-7669800D02*
X12306100Y-7302500D01*
X12306100Y-7066300D02*
X12306100Y-6699000D01*
X12302100Y-7668700D02*
X12302100Y-7302500D01*
X12302100Y-7066300D02*
X12302100Y-6700100D01*
X12298100Y-7667500D02*
X12298100Y-7302500D01*
X12298100Y-7066300D02*
X12298100Y-6701300D01*
X12294100Y-7666200D02*
X12294100Y-7302500D01*
X12294100Y-7066300D02*
X12294100Y-6702600D01*
X12290100Y-7665000D02*
X12290100Y-7302500D01*
X12290100Y-7066300D02*
X12290100Y-6703800D01*
X12286100Y-7663600D02*
X12286100Y-7302500D01*
X12286100Y-7066300D02*
X12286100Y-6705200D01*
X12282100Y-7662300D02*
X12282100Y-7302500D01*
X12282100Y-7066300D02*
X12282100Y-6706500D01*
X12278100Y-7660900D02*
X12278100Y-7302500D01*
X12278100Y-7066300D02*
X12278100Y-6707900D01*
X12274100Y-7659500D02*
X12274100Y-7302500D01*
X12274100Y-7066300D02*
X12274100Y-6709300D01*
X12270100Y-7658100D02*
X12270100Y-7302500D01*
X12270100Y-7066300D02*
X12270100Y-6710700D01*
X12266100Y-7656600D02*
X12266100Y-7302500D01*
X12266100Y-7066300D02*
X12266100Y-6712200D01*
X12262100Y-7655000D02*
X12262100Y-7302500D01*
X12262100Y-7066300D02*
X12262100Y-6713800D01*
X12258100Y-7653500D02*
X12258100Y-7302500D01*
X12258100Y-7066300D02*
X12258100Y-6715300D01*
X12254100Y-7651800D02*
X12254100Y-7302500D01*
X12254100Y-7066300D02*
X12254100Y-6717000D01*
X12250100Y-7650200D02*
X12250100Y-7302500D01*
X12250100Y-7066300D02*
X12250100Y-6718600D01*
X12246100Y-7648500D02*
X12246100Y-7302500D01*
X12246100Y-7066300D02*
X12246100Y-6720300D01*
X12242100Y-7646800D02*
X12242100Y-7302500D01*
X12242100Y-7066300D02*
X12242100Y-6722000D01*
X12238100Y-7645000D02*
X12238100Y-7302500D01*
X12238100Y-7066300D02*
X12238100Y-6723800D01*
X12234100Y-7643200D02*
X12234100Y-7302500D01*
X12234100Y-7066300D02*
X12234100Y-6725600D01*
X12230100Y-7641300D02*
X12230100Y-7302500D01*
X12230100Y-7066300D02*
X12230100Y-6727500D01*
X12226100Y-7639400D02*
X12226100Y-7302500D01*
X12226100Y-7066300D02*
X12226100Y-6729400D01*
X12222100Y-7637500D02*
X12222100Y-7302500D01*
X12222100Y-7066300D02*
X12222100Y-6731300D01*
X12218100Y-7635500D02*
X12218100Y-7302500D01*
X12218100Y-7066300D02*
X12218100Y-6733300D01*
X12214100Y-7633500D02*
X12214100Y-7302500D01*
X12214100Y-7066300D02*
X12214100Y-6735300D01*
X12210100Y-7631400D02*
X12210100Y-7302500D01*
X12210100Y-7066300D02*
X12210100Y-6737400D01*
X12206100Y-7629300D02*
X12206100Y-7302500D01*
X12206100Y-7066300D02*
X12206100Y-6739500D01*
X12202100Y-7627200D02*
X12202100Y-7302500D01*
X12202100Y-7066300D02*
X12202100Y-6741600D01*
X12198100Y-7624900D02*
X12198100Y-7302500D01*
X12198100Y-7066300D02*
X12198100Y-6743900D01*
X12194100Y-7622700D02*
X12194100Y-7302500D01*
X12194100Y-7066300D02*
X12194100Y-6746100D01*
X12190100Y-7620400D02*
X12190100Y-7302500D01*
X12190100Y-7066300D02*
X12190100Y-6748400D01*
X12186100Y-7618000D02*
X12186100Y-7302500D01*
X12186100Y-7066300D02*
X12186100Y-6750800D01*
X12182100Y-7615600D02*
X12182100Y-7302500D01*
X12182100Y-7066300D02*
X12182100Y-6753200D01*
X12178100Y-7613200D02*
X12178100Y-7302500D01*
X12178100Y-7066300D02*
X12178100Y-6755600D01*
X12174100Y-7610700D02*
X12174100Y-7302500D01*
X12174100Y-7066300D02*
X12174100Y-6758100D01*
X12170100Y-7608100D02*
X12170100Y-7302500D01*
X12170100Y-7066300D02*
X12170100Y-6760700D01*
X12166100Y-7605500D02*
X12166100Y-7302500D01*
X12166100Y-7066300D02*
X12166100Y-6763300D01*
X12162100Y-7602900D02*
X12162100Y-7302500D01*
X12162100Y-7066300D02*
X12162100Y-6765900D01*
X12158100Y-7600100D02*
X12158100Y-7302500D01*
X12158100Y-7066300D02*
X12158100Y-6768700D01*
X12154100Y-7597400D02*
X12154100Y-7302500D01*
X12154100Y-7066300D02*
X12154100Y-6771400D01*
X12150100Y-7594500D02*
X12150100Y-7302500D01*
X12150100Y-7066300D02*
X12150100Y-6774300D01*
X12146100Y-7591600D02*
X12146100Y-7302500D01*
X12146100Y-7066300D02*
X12146100Y-6777200D01*
X12142100Y-7588700D02*
X12142100Y-7302500D01*
X12142100Y-7066300D02*
X12142100Y-6780100D01*
X12138100Y-7585700D02*
X12138100Y-7302500D01*
X12138100Y-7066300D02*
X12138100Y-6783100D01*
X12134100Y-7582600D02*
X12134100Y-7302500D01*
X12134100Y-7066300D02*
X12134100Y-6786200D01*
X12130100Y-7579500D02*
X12130100Y-7302500D01*
X12130100Y-7066300D02*
X12130100Y-6789300D01*
X12126100Y-7576300D02*
X12126100Y-7302500D01*
X12126100Y-7066300D02*
X12126100Y-6792500D01*
X12122100Y-7573000D02*
X12122100Y-7302500D01*
X12122100Y-7066300D02*
X12122100Y-6795800D01*
X12118100Y-7569700D02*
X12118100Y-7302500D01*
X12118100Y-7066300D02*
X12118100Y-6799100D01*
X12114100Y-7566300D02*
X12114100Y-7302500D01*
X12114100Y-7066300D02*
X12114100Y-6802500D01*
X12110100Y-7562800D02*
X12110100Y-7302500D01*
X12110100Y-7066300D02*
X12110100Y-6806000D01*
X12106100Y-7559200D02*
X12106100Y-7302500D01*
X12106100Y-7066300D02*
X12106100Y-6809600D01*
X12102100Y-7555600D02*
X12102100Y-7302500D01*
X12102100Y-7066300D02*
X12102100Y-6813200D01*
X12098100Y-7551900D02*
X12098100Y-7302500D01*
X12098100Y-7066300D02*
X12098100Y-6816900D01*
X12094100Y-7548100D02*
X12094100Y-7302500D01*
X12094100Y-7066300D02*
X12094100Y-6820700D01*
X12090100Y-7544200D02*
X12090100Y-7302500D01*
X12090100Y-7066300D02*
X12090100Y-6824600D01*
X12086100Y-7540300D02*
X12086100Y-7302500D01*
X12086100Y-7066300D02*
X12086100Y-6828500D01*
X12082100Y-7536200D02*
X12082100Y-7302500D01*
X12082100Y-7066300D02*
X12082100Y-6832600D01*
X12078100Y-7532100D02*
X12078100Y-6836700D01*
X12074100Y-7527900D02*
X12074100Y-6840900D01*
X12070100Y-7523500D02*
X12070100Y-6845300D01*
X12066100Y-7519100D02*
X12066100Y-6849700D01*
X12062100Y-7514600D02*
X12062100Y-6854200D01*
X12058100Y-7509900D02*
X12058100Y-6858900D01*
X12054100Y-7505100D02*
X12054100Y-6863700D01*
X12050100Y-7500200D02*
X12050100Y-6868600D01*
X12046100Y-7495200D02*
X12046100Y-6873600D01*
X12042100Y-7490100D02*
X12042100Y-6878700D01*
X12038100Y-7484800D02*
X12038100Y-6884000D01*
X12034100Y-7479300D02*
X12034100Y-6889500D01*
X12030100Y-7473800D02*
X12030100Y-6895000D01*
X12026100Y-7468000D02*
X12026100Y-6900800D01*
X12022100Y-7462100D02*
X12022100Y-6906700D01*
X12018100Y-7455900D02*
X12018100Y-6912900D01*
X12014100Y-7449600D02*
X12014100Y-6919200D01*
X12010100Y-7443100D02*
X12010100Y-6925700D01*
X12006100Y-7436300D02*
X12006100Y-6932500D01*
X12002100Y-7429300D02*
X12002100Y-6939500D01*
X11998100Y-7422100D02*
X11998100Y-6946700D01*
X11994100Y-7414500D02*
X11994100Y-6954300D01*
X11990100Y-7406600D02*
X11990100Y-6962200D01*
X11986100Y-7398400D02*
X11986100Y-6970400D01*
X11982100Y-7389700D02*
X11982100Y-6979100D01*
X11978100Y-7380600D02*
X11978100Y-6988200D01*
X11974100Y-7371000D02*
X11974100Y-6997800D01*
X11970100Y-7360700D02*
X11970100Y-7008100D01*
X11966100Y-7349800D02*
X11966100Y-7019000D01*
X11962100Y-7338000D02*
X11962100Y-7030800D01*
X11958100Y-7325100D02*
X11958100Y-7043700D01*
X11954100Y-7310900D02*
X11954100Y-7057900D01*
X11950100Y-7294800D02*
X11950100Y-7074000D01*
X11946100Y-7275700D02*
X11946100Y-7093100D01*
X11942100Y-7251600D02*
X11942100Y-7117200D01*
X11938100Y-7212300D02*
X11938100Y-7156500D01*
X12966200Y-7184400D02*
X12816200Y-7184400D01*
X12891200Y-7259400D02*
X12891200Y-7109400D01*
X12276200Y-8222100D02*
X12276200Y-8204100D01*
X12276200Y-8204100D02*
X12608200Y-8204100D01*
X12608200Y-8204100D02*
X12608200Y-8222100D01*
X12276200Y-8458100D02*
X12276200Y-8476100D01*
X12276200Y-8476100D02*
X12608200Y-8476100D01*
X12608200Y-8476100D02*
X12608200Y-8458100D01*
X12330200Y-8204100D02*
X12330200Y-8476100D01*
X12608200Y-8102500D02*
X12608200Y-8120500D01*
X12608200Y-8120500D02*
X12276200Y-8120500D01*
X12276200Y-8120500D02*
X12276200Y-8102500D01*
X12608200Y-7866500D02*
X12608200Y-7848500D01*
X12608200Y-7848500D02*
X12276200Y-7848500D01*
X12276200Y-7848500D02*
X12276200Y-7866500D01*
X12554200Y-8120500D02*
X12554200Y-7848500D01*
X7887400Y-6780900D02*
X7887400Y-6952900D01*
X7887400Y-6952900D02*
X8259400Y-6952900D01*
X8259400Y-6952900D02*
X8259400Y-6780900D01*
X8259400Y-6780900D02*
X7887400Y-6780900D01*
X7780400Y-6866900D02*
X7887400Y-6866900D01*
X8366400Y-6866900D02*
X8259400Y-6866900D01*
X7023800Y-7187300D02*
X7023800Y-7359300D01*
X7023800Y-7359300D02*
X7395800Y-7359300D01*
X7395800Y-7359300D02*
X7395800Y-7187300D01*
X7395800Y-7187300D02*
X7023800Y-7187300D01*
X6916800Y-7273300D02*
X7023800Y-7273300D01*
X7502800Y-7273300D02*
X7395800Y-7273300D01*
X9295970Y-7871431D02*
G75*
G02X9526900Y-7867400I115430J4031D01*
G01*
X9526805Y-7865388D02*
G75*
G02X9387400Y-7980300I-115405J-2012D01*
G01*
X9049400Y-8699400D02*
X9049400Y-7734400D01*
X9544500Y-8699400D02*
X9544500Y-7734400D01*
X9049400Y-8699400D02*
X9544500Y-8699400D01*
X9049400Y-7734400D02*
X9544500Y-7734400D01*
X9338000Y-7779800D02*
X9499000Y-7940900D01*
X9323900Y-7793800D02*
X9484900Y-7955000D01*
X11496400Y-9992700D02*
G75*
G02X11496400Y-10192700I0J-100000D01*
G01*
X11496400Y-10192700D02*
X11496400Y-10357700D01*
X11496400Y-10357700D02*
X12524400Y-10357700D01*
X12524400Y-10357700D02*
X12524400Y-9827700D01*
X12524400Y-9827700D02*
X11496400Y-9827700D01*
X11496400Y-9827700D02*
X11496400Y-9992700D01*
X12903400Y-5858900D02*
X11879400Y-5858900D01*
X12903400Y-5394800D02*
X11879400Y-5394800D01*
X12903400Y-5858900D02*
X12903400Y-5394800D01*
X11879400Y-5858900D02*
X11879400Y-5394800D01*
X12903400Y-5707900D02*
X11879400Y-5707900D01*
X12576400Y-5858900D02*
X12576400Y-5707900D01*
X12206300Y-5858900D02*
X12206300Y-5707900D01*
X12043600Y-12327000D02*
X11019600Y-12327000D01*
X12043600Y-11862900D02*
X11019600Y-11862900D01*
X12043600Y-12327000D02*
X12043600Y-11862900D01*
X11019600Y-12327000D02*
X11019600Y-11862900D01*
X12043600Y-12176000D02*
X11019600Y-12176000D01*
X11716600Y-12327000D02*
X11716600Y-12176000D01*
X11346500Y-12327000D02*
X11346500Y-12176000D01*
X11599600Y-9232000D02*
X11971600Y-9232000D01*
X11599600Y-9404000D02*
X11971600Y-9404000D01*
X11200500Y-9758000D02*
X11200500Y-9386000D01*
X11372500Y-9758000D02*
X11372500Y-9386000D01*
X5816600Y-12192000D02*
G75*
G03X5816600Y-12192000I-228600J0D01*
G01*
X6600028Y-8919072D02*
G75*
G03X7061158Y-8919100I230572J117972D01*
G01*
X6600028Y-8683128D02*
G75*
G02X7061158Y-8683100I230572J-117972D01*
G01*
X6600028Y-8683128D02*
G75*
G03X6600042Y-8919100I230572J-117972D01*
G01*
X7175600Y-8801100D02*
X7055600Y-8801100D01*
X7115600Y-8866100D02*
X7115600Y-8736100D01*
X13690600Y-12192000D02*
G75*
G03X13690600Y-12192000I-228600J0D01*
G01*
X12557874Y-8578156D02*
G75*
G03X12558200Y-9557936I138326J-489844D01*
G01*
X12834526Y-8578156D02*
G75*
G02X12834200Y-9557936I-138326J-489844D01*
G01*
X12834526Y-8578156D02*
G75*
G03X12558200Y-8578064I-138326J-489844D01*
G01*
X12191200Y-9068000D02*
X13201200Y-9068000D01*
X12191200Y-9064000D02*
X13201200Y-9064000D01*
X12191200Y-9060000D02*
X13201200Y-9060000D01*
X12191300Y-9056000D02*
X13201100Y-9056000D01*
X12191400Y-9052000D02*
X13201000Y-9052000D01*
X12191500Y-9048000D02*
X13200900Y-9048000D01*
X12191700Y-9044000D02*
X13200700Y-9044000D01*
X12191900Y-9040000D02*
X13200500Y-9040000D01*
X12192200Y-9036000D02*
X13200200Y-9036000D01*
X12192400Y-9032000D02*
X13200000Y-9032000D01*
X12192700Y-9028000D02*
X13199700Y-9028000D01*
X12193100Y-9024000D02*
X13199300Y-9024000D01*
X12193400Y-9020000D02*
X13199000Y-9020000D01*
X12193800Y-9016000D02*
X13198600Y-9016000D01*
X12194200Y-9012000D02*
X13198200Y-9012000D01*
X12194700Y-9008000D02*
X13197700Y-9008000D01*
X12195200Y-9004000D02*
X13197200Y-9004000D01*
X12195700Y-9000000D02*
X13196700Y-9000000D01*
X12196300Y-8995900D02*
X13196100Y-8995900D01*
X12196900Y-8991900D02*
X13195500Y-8991900D01*
X12197500Y-8987900D02*
X13194900Y-8987900D01*
X12198100Y-8983900D02*
X13194300Y-8983900D01*
X12198800Y-8979900D02*
X13193600Y-8979900D01*
X12199500Y-8975900D02*
X13192900Y-8975900D01*
X12200300Y-8971900D02*
X13192100Y-8971900D01*
X12201100Y-8967900D02*
X13191300Y-8967900D01*
X12201900Y-8963900D02*
X13190500Y-8963900D01*
X12202700Y-8959900D02*
X13189700Y-8959900D01*
X12203600Y-8955900D02*
X13188800Y-8955900D01*
X12204500Y-8951900D02*
X13187900Y-8951900D01*
X12205500Y-8947900D02*
X13186900Y-8947900D01*
X12206500Y-8943900D02*
X13185900Y-8943900D01*
X12207500Y-8939900D02*
X13184900Y-8939900D01*
X12208600Y-8935900D02*
X12578100Y-8935900D01*
X12814300Y-8935900D02*
X13183800Y-8935900D01*
X12209700Y-8931900D02*
X12578100Y-8931900D01*
X12814300Y-8931900D02*
X13182700Y-8931900D01*
X12210800Y-8927900D02*
X12578100Y-8927900D01*
X12814300Y-8927900D02*
X13181600Y-8927900D01*
X12211900Y-8923900D02*
X12578100Y-8923900D01*
X12814300Y-8923900D02*
X13180500Y-8923900D01*
X12213100Y-8919900D02*
X12578100Y-8919900D01*
X12814300Y-8919900D02*
X13179300Y-8919900D01*
X12214400Y-8915900D02*
X12578100Y-8915900D01*
X12814300Y-8915900D02*
X13178000Y-8915900D01*
X12215600Y-8911900D02*
X12578100Y-8911900D01*
X12814300Y-8911900D02*
X13176800Y-8911900D01*
X12217000Y-8907900D02*
X12578100Y-8907900D01*
X12814300Y-8907900D02*
X13175400Y-8907900D01*
X12218300Y-8903900D02*
X12578100Y-8903900D01*
X12814300Y-8903900D02*
X13174100Y-8903900D01*
X12219700Y-8899900D02*
X12578100Y-8899900D01*
X12814300Y-8899900D02*
X13172700Y-8899900D01*
X12221100Y-8895900D02*
X12578100Y-8895900D01*
X12814300Y-8895900D02*
X13171300Y-8895900D01*
X12222500Y-8891900D02*
X12578100Y-8891900D01*
X12814300Y-8891900D02*
X13169900Y-8891900D01*
X12224000Y-8887900D02*
X12578100Y-8887900D01*
X12814300Y-8887900D02*
X13168400Y-8887900D01*
X12225600Y-8883900D02*
X12578100Y-8883900D01*
X12814300Y-8883900D02*
X13166800Y-8883900D01*
X12227100Y-8879900D02*
X12578100Y-8879900D01*
X12814300Y-8879900D02*
X13165300Y-8879900D01*
X12228800Y-8875900D02*
X12578100Y-8875900D01*
X12814300Y-8875900D02*
X13163600Y-8875900D01*
X12230400Y-8871900D02*
X12578100Y-8871900D01*
X12814300Y-8871900D02*
X13162000Y-8871900D01*
X12232100Y-8867900D02*
X12578100Y-8867900D01*
X12814300Y-8867900D02*
X13160300Y-8867900D01*
X12233800Y-8863900D02*
X12578100Y-8863900D01*
X12814300Y-8863900D02*
X13158600Y-8863900D01*
X12235600Y-8859900D02*
X12578100Y-8859900D01*
X12814300Y-8859900D02*
X13156800Y-8859900D01*
X12237400Y-8855900D02*
X12578100Y-8855900D01*
X12814300Y-8855900D02*
X13155000Y-8855900D01*
X12239300Y-8851900D02*
X12578100Y-8851900D01*
X12814300Y-8851900D02*
X13153100Y-8851900D01*
X12241200Y-8847900D02*
X12578100Y-8847900D01*
X12814300Y-8847900D02*
X13151200Y-8847900D01*
X12243100Y-8843900D02*
X12578100Y-8843900D01*
X12814300Y-8843900D02*
X13149300Y-8843900D01*
X12245100Y-8839900D02*
X12578100Y-8839900D01*
X12814300Y-8839900D02*
X13147300Y-8839900D01*
X12247100Y-8835900D02*
X12578100Y-8835900D01*
X12814300Y-8835900D02*
X13145300Y-8835900D01*
X12249200Y-8831900D02*
X12578100Y-8831900D01*
X12814300Y-8831900D02*
X13143200Y-8831900D01*
X12251300Y-8827900D02*
X12578100Y-8827900D01*
X12814300Y-8827900D02*
X13141100Y-8827900D01*
X12253400Y-8823900D02*
X12578100Y-8823900D01*
X12814300Y-8823900D02*
X13139000Y-8823900D01*
X12255700Y-8819900D02*
X12578100Y-8819900D01*
X12814300Y-8819900D02*
X13136700Y-8819900D01*
X12257900Y-8815900D02*
X12578100Y-8815900D01*
X12814300Y-8815900D02*
X13134500Y-8815900D01*
X12260200Y-8811900D02*
X12578100Y-8811900D01*
X12814300Y-8811900D02*
X13132200Y-8811900D01*
X12262600Y-8807900D02*
X12578100Y-8807900D01*
X12814300Y-8807900D02*
X13129800Y-8807900D01*
X12265000Y-8803900D02*
X12578100Y-8803900D01*
X12814300Y-8803900D02*
X13127400Y-8803900D01*
X12267400Y-8799900D02*
X12578100Y-8799900D01*
X12814300Y-8799900D02*
X13125000Y-8799900D01*
X12269900Y-8795900D02*
X12578100Y-8795900D01*
X12814300Y-8795900D02*
X13122500Y-8795900D01*
X12272500Y-8791900D02*
X12578100Y-8791900D01*
X12814300Y-8791900D02*
X13119900Y-8791900D01*
X12275100Y-8787900D02*
X12578100Y-8787900D01*
X12814300Y-8787900D02*
X13117300Y-8787900D01*
X12277700Y-8783900D02*
X12578100Y-8783900D01*
X12814300Y-8783900D02*
X13114700Y-8783900D01*
X12280500Y-8779900D02*
X12578100Y-8779900D01*
X12814300Y-8779900D02*
X13111900Y-8779900D01*
X12283200Y-8775900D02*
X12578100Y-8775900D01*
X12814300Y-8775900D02*
X13109200Y-8775900D01*
X12286100Y-8771900D02*
X12578100Y-8771900D01*
X12814300Y-8771900D02*
X13106300Y-8771900D01*
X12289000Y-8767900D02*
X12578100Y-8767900D01*
X12814300Y-8767900D02*
X13103400Y-8767900D01*
X12291900Y-8763900D02*
X12578100Y-8763900D01*
X12814300Y-8763900D02*
X13100500Y-8763900D01*
X12294900Y-8759900D02*
X12578100Y-8759900D01*
X12814300Y-8759900D02*
X13097500Y-8759900D01*
X12298000Y-8755900D02*
X12578100Y-8755900D01*
X12814300Y-8755900D02*
X13094400Y-8755900D01*
X12301100Y-8751900D02*
X12578100Y-8751900D01*
X12814300Y-8751900D02*
X13091300Y-8751900D01*
X12304300Y-8747900D02*
X12578100Y-8747900D01*
X12814300Y-8747900D02*
X13088100Y-8747900D01*
X12307600Y-8743900D02*
X12578100Y-8743900D01*
X12814300Y-8743900D02*
X13084800Y-8743900D01*
X12310900Y-8739900D02*
X12578100Y-8739900D01*
X12814300Y-8739900D02*
X13081500Y-8739900D01*
X12314300Y-8735900D02*
X12578100Y-8735900D01*
X12814300Y-8735900D02*
X13078100Y-8735900D01*
X12317800Y-8731900D02*
X12578100Y-8731900D01*
X12814300Y-8731900D02*
X13074600Y-8731900D01*
X12321400Y-8727900D02*
X12578100Y-8727900D01*
X12814300Y-8727900D02*
X13071000Y-8727900D01*
X12325000Y-8723900D02*
X12578100Y-8723900D01*
X12814300Y-8723900D02*
X13067400Y-8723900D01*
X12328700Y-8719900D02*
X12578100Y-8719900D01*
X12814300Y-8719900D02*
X13063700Y-8719900D01*
X12332500Y-8715900D02*
X12578100Y-8715900D01*
X12814300Y-8715900D02*
X13059900Y-8715900D01*
X12336400Y-8711900D02*
X12578100Y-8711900D01*
X12814300Y-8711900D02*
X13056000Y-8711900D01*
X12340300Y-8707900D02*
X12578100Y-8707900D01*
X12814300Y-8707900D02*
X13052100Y-8707900D01*
X12344400Y-8703900D02*
X12578100Y-8703900D01*
X12814300Y-8703900D02*
X13048000Y-8703900D01*
X12348500Y-8699900D02*
X13043900Y-8699900D01*
X12352700Y-8695900D02*
X13039700Y-8695900D01*
X12357100Y-8691900D02*
X13035300Y-8691900D01*
X12361500Y-8687900D02*
X13030900Y-8687900D01*
X12366000Y-8683900D02*
X13026400Y-8683900D01*
X12370700Y-8679900D02*
X13021700Y-8679900D01*
X12375500Y-8675900D02*
X13016900Y-8675900D01*
X12380400Y-8671900D02*
X13012000Y-8671900D01*
X12385400Y-8667900D02*
X13007000Y-8667900D01*
X12390500Y-8663900D02*
X13001900Y-8663900D01*
X12395800Y-8659900D02*
X12996600Y-8659900D01*
X12401300Y-8655900D02*
X12991100Y-8655900D01*
X12406800Y-8651900D02*
X12985600Y-8651900D01*
X12412600Y-8647900D02*
X12979800Y-8647900D01*
X12418500Y-8643900D02*
X12973900Y-8643900D01*
X12424700Y-8639900D02*
X12967700Y-8639900D01*
X12431000Y-8635900D02*
X12961400Y-8635900D01*
X12437500Y-8631900D02*
X12954900Y-8631900D01*
X12444300Y-8627900D02*
X12948100Y-8627900D01*
X12451300Y-8623900D02*
X12941100Y-8623900D01*
X12458500Y-8619900D02*
X12933900Y-8619900D01*
X12466100Y-8615900D02*
X12926300Y-8615900D01*
X12474000Y-8611900D02*
X12918400Y-8611900D01*
X12482200Y-8607900D02*
X12910200Y-8607900D01*
X12490900Y-8603900D02*
X12901500Y-8603900D01*
X12500000Y-8599900D02*
X12892400Y-8599900D01*
X12509600Y-8595900D02*
X12882800Y-8595900D01*
X12519900Y-8591900D02*
X12872500Y-8591900D01*
X12530800Y-8587900D02*
X12861600Y-8587900D01*
X12542600Y-8583900D02*
X12849800Y-8583900D01*
X12555500Y-8579900D02*
X12836900Y-8579900D01*
X12569700Y-8575900D02*
X12822700Y-8575900D01*
X12585800Y-8571900D02*
X12806600Y-8571900D01*
X12604900Y-8567900D02*
X12787500Y-8567900D01*
X12629000Y-8563900D02*
X12763400Y-8563900D01*
X12668300Y-8559900D02*
X12724100Y-8559900D01*
X12696200Y-9588000D02*
X12696200Y-9438000D01*
X12621200Y-9513000D02*
X12771200Y-9513000D01*
X11535426Y-6037309D02*
G75*
G03X11535300Y-5359247I-118126J339009D01*
G01*
X11299174Y-6037309D02*
G75*
G02X11299300Y-5359247I118126J339009D01*
G01*
X11299174Y-6037309D02*
G75*
G03X11535300Y-6037353I118126J339009D01*
G01*
X11417300Y-5228300D02*
X11417300Y-5348300D01*
X11482300Y-5288300D02*
X11352300Y-5288300D01*
X7489228Y-9880472D02*
G75*
G03X7950358Y-9880500I230572J117972D01*
G01*
X7489228Y-9644528D02*
G75*
G02X7950358Y-9644500I230572J-117972D01*
G01*
X7489228Y-9644528D02*
G75*
G03X7489242Y-9880500I230572J-117972D01*
G01*
X8064800Y-9762500D02*
X7944800Y-9762500D01*
X8004800Y-9827500D02*
X8004800Y-9697500D01*
X11771800Y-8961700D02*
X11771800Y-8437700D01*
X12045800Y-8961700D02*
X12045800Y-8437700D01*
X11771800Y-8961700D02*
X11803300Y-8961700D01*
X12014300Y-8961700D02*
X12045800Y-8961700D01*
X11771800Y-8437700D02*
X11803300Y-8437700D01*
X12014300Y-8437700D02*
X12045800Y-8437700D01*
X11462374Y-8716700D02*
G75*
G03X11462374Y-8928700I-211974J-106000D01*
G01*
X11504129Y-8956200D02*
X11459129Y-8956200D01*
X11481629Y-8978700D02*
X11481629Y-8933700D01*
X12754400Y-11463471D02*
X12709400Y-11463471D01*
X12731900Y-11440971D02*
X12731900Y-11485971D01*
X12492400Y-11482726D02*
G75*
G03X12704400Y-11482726I106000J-211974D01*
G01*
X7030074Y-8107100D02*
G75*
G03X7030074Y-8319100I-211974J-106000D01*
G01*
X7071829Y-8346600D02*
X7026829Y-8346600D01*
X7049329Y-8369100D02*
X7049329Y-8324100D01*
X7738571Y-8996900D02*
X7738571Y-9041900D01*
X7716071Y-9019400D02*
X7761071Y-9019400D01*
X7757826Y-9258900D02*
G75*
G03X7757826Y-9046900I211974J106000D01*
G01*
X12113926Y-6414100D02*
G75*
G03X12113926Y-6202100I211974J106000D01*
G01*
X12072171Y-6174600D02*
X12117171Y-6174600D01*
X12094671Y-6152100D02*
X12094671Y-6197100D01*
M02*
